<svg id="visual" viewBox="0 0 900 600" width="900" height="600" xmlns="http://www.w3.org/2000/svg" xmlns:xlink="http://www.w3.org/1999/xlink" version="1.1"><path d="M0 115L13.7 127C27.3 139 54.7 163 82 187C109.3 211 136.7 235 163.8 247C191 259 218 259 245.2 247C272.3 235 299.7 211 327 202C354.3 193 381.7 199 409 208C436.3 217 463.7 229 491 210C518.3 191 545.7 141 573 131C600.3 121 627.7 151 654.8 158C682 165 709 149 736.2 135C763.3 121 790.7 109 818 120C845.3 131 872.7 165 886.3 182L900 199L900 0L886.3 0C872.7 0 845.3 0 818 0C790.7 0 763.3 0 736.2 0C709 0 682 0 654.8 0C627.7 0 600.3 0 573 0C545.7 0 518.3 0 491 0C463.7 0 436.3 0 409 0C381.7 0 354.3 0 327 0C299.7 0 272.3 0 245.2 0C218 0 191 0 163.8 0C136.7 0 109.3 0 82 0C54.7 0 27.3 0 13.7 0L0 0Z" fill="#d3f9d8"></path><path d="M0 259L13.7 261C27.3 263 54.7 267 82 282C109.3 297 136.7 323 163.8 332C191 341 218 333 245.2 323C272.3 313 299.7 301 327 303C354.3 305 381.7 321 409 343C436.3 365 463.7 393 491 376C518.3 359 545.7 297 573 287C600.3 277 627.7 319 654.8 325C682 331 709 301 736.2 268C763.3 235 790.7 199 818 201C845.3 203 872.7 243 886.3 263L900 283L900 197L886.3 180C872.7 163 845.3 129 818 118C790.7 107 763.3 119 736.2 133C709 147 682 163 654.8 156C627.7 149 600.3 119 573 129C545.7 139 518.3 189 491 208C463.7 227 436.3 215 409 206C381.7 197 354.3 191 327 200C299.7 209 272.3 233 245.2 245C218 257 191 257 163.8 245C136.7 233 109.3 209 82 185C54.7 161 27.3 137 13.7 125L0 113Z" fill="#c2f5c9"></path><path d="M0 331L13.7 330C27.3 329 54.7 327 82 337C109.3 347 136.7 369 163.8 386C191 403 218 415 245.2 412C272.3 409 299.7 391 327 390C354.3 389 381.7 405 409 421C436.3 437 463.7 453 491 437C518.3 421 545.7 373 573 362C600.3 351 627.7 377 654.8 385C682 393 709 383 736.2 356C763.3 329 790.7 285 818 289C845.3 293 872.7 345 886.3 371L900 397L900 281L886.3 261C872.7 241 845.3 201 818 199C790.7 197 763.3 233 736.2 266C709 299 682 329 654.8 323C627.7 317 600.3 275 573 285C545.7 295 518.3 357 491 374C463.7 391 436.3 363 409 341C381.7 319 354.3 303 327 301C299.7 299 272.3 311 245.2 321C218 331 191 339 163.8 330C136.7 321 109.3 295 82 280C54.7 265 27.3 261 13.7 259L0 257Z" fill="#b0f1b9"></path><path d="M0 367L13.7 376C27.3 385 54.7 403 82 415C109.3 427 136.7 433 163.8 447C191 461 218 483 245.2 478C272.3 473 299.7 441 327 436C354.3 431 381.7 453 409 472C436.3 491 463.7 507 491 489C518.3 471 545.7 419 573 408C600.3 397 627.7 427 654.8 445C682 463 709 469 736.2 449C763.3 429 790.7 383 818 387C845.3 391 872.7 445 886.3 472L900 499L900 395L886.3 369C872.7 343 845.3 291 818 287C790.7 283 763.3 327 736.2 354C709 381 682 391 654.8 383C627.7 375 600.3 349 573 360C545.7 371 518.3 419 491 435C463.7 451 436.3 435 409 419C381.7 403 354.3 387 327 388C299.7 389 272.3 407 245.2 410C218 413 191 401 163.8 384C136.7 367 109.3 345 82 335C54.7 325 27.3 327 13.7 328L0 329Z" fill="#9eedaa"></path><path d="M0 601L13.7 601C27.3 601 54.7 601 82 601C109.3 601 136.7 601 163.8 601C191 601 218 601 245.2 601C272.3 601 299.7 601 327 601C354.3 601 381.7 601 409 601C436.3 601 463.7 601 491 601C518.3 601 545.7 601 573 601C600.3 601 627.7 601 654.8 601C682 601 709 601 736.2 601C763.3 601 790.7 601 818 601C845.3 601 872.7 601 886.3 601L900 601L900 497L886.3 470C872.7 443 845.3 389 818 385C790.7 381 763.3 427 736.2 447C709 467 682 461 654.8 443C627.7 425 600.3 395 573 406C545.7 417 518.3 469 491 487C463.7 505 436.3 489 409 470C381.7 451 354.3 429 327 434C299.7 439 272.3 471 245.2 476C218 481 191 459 163.8 445C136.7 431 109.3 425 82 413C54.7 401 27.3 383 13.7 374L0 365Z" fill="#8ce99a"></path></svg>